<svg width="51" height="51" viewBox="0 0 51 51" fill="none" xmlns="http://www.w3.org/2000/svg">
<mask id="mask0_1055_871" style="mask-type:alpha" maskUnits="userSpaceOnUse" x="0" y="0" width="51" height="51">
<rect width="51" height="51" fill="#D9D9D9"/>
</mask>
<g mask="url(#mask0_1055_871)">
<path d="M16.1829 44.625C14.6462 44.625 13.3358 44.0828 12.2517 42.9983C11.1672 41.9142 10.625 40.6038 10.625 39.0671V12.75C10.625 10.9682 11.2421 9.46032 12.4764 8.2264C13.7103 6.99213 15.2182 6.375 17 6.375H40.375V35.6347C39.435 35.6347 38.6279 35.9718 37.9536 36.6462C37.2792 37.3205 36.9421 38.1275 36.9421 39.0671C36.9421 40.007 37.2792 40.8142 37.9536 41.4885C38.6279 42.1628 39.435 42.5 40.375 42.5V44.625H16.1829ZM12.75 34.7724C13.2186 34.3609 13.7388 34.0476 14.3108 33.8327C14.8831 33.6173 15.5072 33.5097 16.1829 33.5097H17.8171V8.5H17C15.8422 8.5 14.8444 8.9188 14.0064 9.75641C13.1688 10.5944 12.75 11.5922 12.75 12.75V34.7724ZM19.9421 33.5097H38.25V8.5H19.9421V33.5097ZM16.1829 42.5H36.0798C35.6768 42.0314 35.3657 41.5131 35.1464 40.945C34.9269 40.3769 34.8171 39.751 34.8171 39.0671C34.8171 38.4189 34.9247 37.802 35.1401 37.2162C35.3554 36.6304 35.6687 36.1032 36.0798 35.6347H16.1829C15.2076 35.6347 14.3916 35.9718 13.7349 36.6462C13.0783 37.3205 12.75 38.1275 12.75 39.0671C12.75 40.0424 13.0783 40.8584 13.7349 41.5151C14.3916 42.1717 15.2076 42.5 16.1829 42.5Z" fill="white"/>
</g>
</svg>
