<svg width="50" height="50" viewBox="0 0 50 50" fill="none" xmlns="http://www.w3.org/2000/svg">
<mask id="mask0_1055_852" style="mask-type:alpha" maskUnits="userSpaceOnUse" x="0" y="0" width="50" height="50">
<rect y="-7.62939e-06" width="49.5884" height="49.5884" fill="#D9D9D9"/>
</mask>
<g mask="url(#mask0_1055_852)">
<path d="M12.3965 40.2905V11.6026C12.3965 10.6515 12.715 9.85737 13.3521 9.2203C13.9892 8.58323 14.7833 8.26469 15.7344 8.26469H33.8528C34.8039 8.26469 35.598 8.58323 36.2351 9.2203C36.8721 9.85737 37.1907 10.6515 37.1907 11.6026V40.2905L24.7936 34.966L12.3965 40.2905ZM14.4627 37.0879L24.7936 32.6456L35.1245 37.0879V11.6026C35.1245 11.2844 34.9921 10.9929 34.7273 10.7281C34.4625 10.4633 34.1709 10.3309 33.8528 10.3309H15.7344C15.4162 10.3309 15.1247 10.4633 14.8599 10.7281C14.5951 10.9929 14.4627 11.2844 14.4627 11.6026V37.0879Z" fill="white"/>
</g>
</svg>
