<svg width="50" height="50" viewBox="0 0 50 50" fill="none" xmlns="http://www.w3.org/2000/svg">
<mask id="mask0_1055_945" style="mask-type:alpha" maskUnits="userSpaceOnUse" x="0" y="0" width="50" height="50">
<rect width="49.5293" height="49.5293" fill="#D9D9D9"/>
</mask>
<g mask="url(#mask0_1055_945)">
<path d="M11.5878 41.2744C10.6378 41.2744 9.84469 40.9563 9.20838 40.3199C8.57206 39.6836 8.25391 38.8905 8.25391 37.9405V11.5888C8.25391 10.6388 8.57206 9.84567 9.20838 9.20935C9.84469 8.57304 10.6378 8.25488 11.5878 8.25488H32.1456L41.2734 17.3827V37.9405C41.2734 38.8905 40.9553 39.6836 40.319 40.3199C39.6827 40.9563 38.8895 41.2744 37.9395 41.2744H11.5878ZM11.5878 39.2107H37.9395C38.3099 39.2107 38.6143 39.0917 38.8527 38.8537C39.0907 38.6153 39.2097 38.3109 39.2097 37.9405V18.5735H30.9548V10.3186H11.5878C11.2174 10.3186 10.913 10.4376 10.6747 10.6756C10.4366 10.914 10.3176 11.2184 10.3176 11.5888V37.9405C10.3176 38.3109 10.4366 38.6153 10.6747 38.8537C10.913 39.0917 11.2174 39.2107 11.5878 39.2107ZM15.4769 33.0195H34.0504V30.9558H15.4769V33.0195ZM15.4769 18.5735H24.7637V16.5098H15.4769V18.5735ZM15.4769 25.7965H34.0504V23.7328H15.4769V25.7965Z" fill="white"/>
</g>
</svg>
