<svg width="46" height="46" viewBox="0 0 46 46" fill="none" xmlns="http://www.w3.org/2000/svg">
<mask id="mask0_1055_969" style="mask-type:alpha" maskUnits="userSpaceOnUse" x="0" y="0" width="46" height="46">
<rect width="45.3798" height="45.3798" fill="#D9D9D9"/>
</mask>
<g mask="url(#mask0_1055_969)">
<path d="M18.9077 29.4534L29.4528 22.6899L18.9077 15.9264V29.4534ZM22.6955 39.7074C20.3423 39.7074 18.1299 39.2608 16.0582 38.3677C13.9868 37.4746 12.1848 36.2626 10.6523 34.7316C9.1198 33.2007 7.90667 31.4003 7.01294 29.3305C6.1189 27.261 5.67188 25.0495 5.67188 22.6961C5.67188 20.3429 6.11842 18.1305 7.01152 16.0588C7.90462 13.9874 9.11664 12.1854 10.6476 10.6529C12.1785 9.12041 13.9789 7.90728 16.0487 7.01355C18.1182 6.11951 20.3297 5.67249 22.6832 5.67249C25.0363 5.67249 27.2487 6.11904 29.3204 7.01214C31.3918 7.90524 33.1938 9.11726 34.7263 10.6482C36.2588 12.1791 37.4719 13.9795 38.3657 16.0493C39.2597 18.1188 39.7067 20.3303 39.7067 22.6838C39.7067 25.0369 39.2602 27.2493 38.3671 29.321C37.474 31.3924 36.262 33.1944 34.731 34.7269C33.2001 36.2594 31.3997 37.4726 29.3299 38.3663C27.2604 39.2603 25.0489 39.7074 22.6955 39.7074ZM22.6893 37.8165C26.9122 37.8165 30.489 36.3511 33.4197 33.4204C36.3505 30.4896 37.8159 26.9128 37.8159 22.6899C37.8159 18.4671 36.3505 14.8903 33.4197 11.9595C30.489 9.0287 26.9122 7.56331 22.6893 7.56331C18.4665 7.56331 14.8897 9.0287 11.9589 11.9595C9.02809 14.8903 7.5627 18.4671 7.5627 22.6899C7.5627 26.9128 9.02809 30.4896 11.9589 33.4204C14.8897 36.3511 18.4665 37.8165 22.6893 37.8165Z" fill="white"/>
</g>
</svg>
