<svg width="45" height="45" viewBox="0 0 45 45" fill="none" xmlns="http://www.w3.org/2000/svg">
<mask id="mask0_1055_954" style="mask-type:alpha" maskUnits="userSpaceOnUse" x="0" y="0" width="45" height="45">
<rect width="44.1094" height="44.1094" fill="#D9D9D9"/>
</mask>
<g mask="url(#mask0_1055_954)">
<path d="M21.1357 38.5957V23.6344C20.8199 23.4389 20.5879 23.2113 20.4396 22.9516C20.2911 22.6921 20.2168 22.3918 20.2168 22.0506C20.2168 21.5608 20.4 21.1327 20.7663 20.7663C21.1327 20.4 21.5621 20.2168 22.0547 20.2168C22.5472 20.2168 22.9767 20.4 23.3431 20.7663C23.7094 21.1327 23.8926 21.5594 23.8926 22.0464C23.8926 22.3855 23.8183 22.6878 23.6697 22.9534C23.5215 23.219 23.2894 23.446 22.9736 23.6344V38.5957H21.1357ZM10.6809 34.0717C9.07642 32.5518 7.8141 30.764 6.89393 28.7083C5.97376 26.6526 5.51367 24.4383 5.51367 22.0653C5.51367 19.7749 5.94772 17.6229 6.81582 15.6092C7.68391 13.5958 8.862 11.8443 10.3501 10.3547C11.8382 8.86506 13.5881 7.68591 15.6 6.8172C17.6116 5.94818 19.7612 5.51367 22.0487 5.51367C24.336 5.51367 26.4865 5.94803 28.5002 6.81674C30.5136 7.68545 32.2651 8.8643 33.7547 10.3533C35.2443 11.8426 36.4235 13.5938 37.2922 15.6069C38.1612 17.62 38.5957 19.771 38.5957 22.0597C38.5957 24.4315 38.1356 26.6483 37.2154 28.7101C36.2953 30.7717 35.033 32.5588 33.4285 34.0717L32.1631 32.771C33.5721 31.4278 34.6902 29.8325 35.5172 27.9851C36.3443 26.138 36.7578 24.1612 36.7578 22.0547C36.7578 17.9501 35.3334 14.4734 32.4847 11.6247C29.636 8.77593 26.1593 7.35156 22.0547 7.35156C17.9501 7.35156 14.4734 8.77593 11.6247 11.6247C8.77593 14.4734 7.35156 17.9501 7.35156 22.0547C7.35156 24.1683 7.76509 26.144 8.59214 27.9819C9.41919 29.8198 10.5526 31.4126 11.9922 32.7604L10.6809 34.0717ZM15.8729 28.8797C14.9424 28.0337 14.2084 27.0254 13.6712 25.855C13.1339 24.6849 12.8652 23.4181 12.8652 22.0547C12.8652 19.5022 13.7578 17.3324 15.543 15.5453C17.3282 13.7586 19.496 12.8652 22.0464 12.8652C24.5968 12.8652 26.7673 13.76 28.5581 15.5495C30.3488 17.339 31.2441 19.512 31.2441 22.0685C31.2441 23.4236 30.9755 24.6879 30.4382 25.8614C29.9009 27.0346 29.167 28.0407 28.2364 28.8797L26.9251 27.5684C27.6909 26.8638 28.2959 26.0368 28.74 25.0872C29.1842 24.1376 29.4062 23.1268 29.4062 22.0547C29.4062 20.033 28.6864 18.3023 27.2467 16.8626C25.807 15.423 24.0764 14.7031 22.0547 14.7031C20.033 14.7031 18.3023 15.423 16.8626 16.8626C15.423 18.3023 14.7031 20.033 14.7031 22.0547C14.7031 23.1574 14.9252 24.1759 15.3694 25.1102C15.8135 26.0444 16.4185 26.8638 17.1843 27.5684L15.8729 28.8797Z" fill="white"/>
</g>
</svg>
