<svg width="44" height="44" viewBox="0 0 44 44" fill="none" xmlns="http://www.w3.org/2000/svg">
<mask id="mask0_1055_972" style="mask-type:alpha" maskUnits="userSpaceOnUse" x="0" y="0" width="44" height="44">
<rect width="43.6674" height="43.6674" fill="#D9D9D9"/>
</mask>
<g mask="url(#mask0_1055_972)">
<path d="M15.2548 36.3895V34.57H20.9234V27.7401C19.3207 27.453 17.9182 26.7828 16.7159 25.7296C15.5135 24.6765 14.6859 23.3708 14.2332 21.8128C12.3088 21.5865 10.6684 20.7975 9.31197 19.4456C7.95555 18.0937 7.27734 16.4638 7.27734 14.5558V12.7363C7.27734 12.2487 7.45868 11.8235 7.82137 11.4609C8.18405 11.0982 8.6092 10.9168 9.09682 10.9168H13.9252V7.27789H29.741V10.9168H34.5695C35.0571 10.9168 35.4822 11.0982 35.8449 11.4609C36.2076 11.8235 36.3889 12.2487 36.3889 12.7363V14.5558C36.3889 16.4638 35.7107 18.0937 34.3543 19.4456C32.9979 20.7975 31.3575 21.5865 29.4331 21.8128C28.9803 23.3708 28.1528 24.6765 26.9504 25.7296C25.748 26.7828 24.3455 27.453 22.7429 27.7401V34.57H28.4114V36.3895H15.2548ZM13.9252 19.8605V12.7363H9.09682V14.5558C9.09682 15.9413 9.55866 17.1316 10.4823 18.1265C11.406 19.1214 12.5537 19.6994 13.9252 19.8605ZM26.1021 24.2131C27.2684 23.0468 27.8515 21.6238 27.8515 19.9442V9.09736H15.8148V19.9442C15.8148 21.6238 16.3979 23.0468 17.5642 24.2131C18.7308 25.3794 20.1538 25.9625 21.8331 25.9625C23.5125 25.9625 24.9355 25.3794 26.1021 24.2131ZM29.741 19.8605C31.1126 19.6994 32.2602 19.1214 33.1839 18.1265C34.1076 17.1316 34.5695 15.9413 34.5695 14.5558V12.7363H29.741V19.8605Z" fill="white"/>
</g>
</svg>
