<svg width="43" height="43" viewBox="0 0 43 43" fill="none" xmlns="http://www.w3.org/2000/svg">
<mask id="mask0_1055_911" style="mask-type:alpha" maskUnits="userSpaceOnUse" x="0" y="0" width="43" height="43">
<rect y="3.8147e-06" width="42.9273" height="42.9273" fill="#D9D9D9"/>
</mask>
<g mask="url(#mask0_1055_911)">
<path d="M11.6656 34.8404C10.4479 33.6229 9.83899 32.1451 9.83899 30.4068V15.1654C8.79562 14.7779 7.93856 14.1869 7.26783 13.3924C6.59709 12.598 6.26172 11.715 6.26172 10.7435C6.26172 9.49826 6.69606 8.43969 7.56474 7.56773C8.43342 6.69607 9.48827 6.26023 10.7293 6.26023C11.9703 6.26023 13.0265 6.69607 13.8979 7.56773C14.7692 8.43969 15.2049 9.49826 15.2049 10.7435C15.2049 11.715 14.8695 12.598 14.1988 13.3924C13.5281 14.1869 12.671 14.7779 11.6276 15.1654V30.4068C11.6276 31.6365 12.0661 32.6891 12.9432 33.5647C13.8202 34.4405 14.8744 34.8784 16.1059 34.8784C17.3374 34.8784 18.3894 34.4405 19.262 33.5647C20.1345 32.6891 20.5708 31.6365 20.5708 30.4068V12.5205C20.5708 10.7822 21.1797 9.30434 22.3975 8.08688C23.6149 6.86912 25.0928 6.26023 26.831 6.26023C28.5693 6.26023 30.0471 6.86912 31.2646 8.08688C32.4824 9.30434 33.0913 10.7822 33.0913 12.5205V27.7619C34.1346 28.1494 34.9917 28.7404 35.6624 29.5349C36.3332 30.3293 36.6685 31.2123 36.6685 32.1838C36.6685 33.429 36.2342 34.4876 35.3655 35.3596C34.4968 36.2312 33.442 36.667 32.201 36.667C30.9599 36.667 29.9038 36.2312 29.0324 35.3596C28.161 34.4876 27.7253 33.429 27.7253 32.1838C27.7253 31.2123 28.0607 30.3219 28.7315 29.5125C29.4022 28.7031 30.2592 28.1196 31.3026 27.7619V12.5205C31.3026 11.2908 30.8641 10.2382 29.9871 9.36262C29.1101 8.48679 28.0558 8.04887 26.8243 8.04887C25.5928 8.04887 24.5408 8.48679 23.6683 9.36262C22.7957 10.2382 22.3594 11.2908 22.3594 12.5205V30.4068C22.3594 32.1451 21.7506 33.6229 20.5328 34.8404C19.3153 36.0582 17.8375 36.667 16.0992 36.667C14.361 36.667 12.8831 36.0582 11.6656 34.8404ZM10.7333 13.4148C11.4693 13.4148 12.1006 13.1517 12.627 12.6255C13.1532 12.0991 13.4163 11.4678 13.4163 10.7318C13.4163 9.9958 13.1532 9.36456 12.627 8.83811C12.1006 8.31195 11.4693 8.04887 10.7333 8.04887C9.99728 8.04887 9.36604 8.31195 8.83959 8.83811C8.31343 9.36456 8.05035 9.9958 8.05035 10.7318C8.05035 11.4678 8.31343 12.0991 8.83959 12.6255C9.36604 13.1517 9.99728 13.4148 10.7333 13.4148ZM32.1969 34.8784C32.933 34.8784 33.5642 34.6153 34.0907 34.0892C34.6168 33.5627 34.8799 32.9315 34.8799 32.1955C34.8799 31.4594 34.6168 30.8282 34.0907 30.3017C33.5642 29.7756 32.933 29.5125 32.1969 29.5125C31.4609 29.5125 30.8297 29.7756 30.3032 30.3017C29.7771 30.8282 29.514 31.4594 29.514 32.1955C29.514 32.9315 29.7771 33.5627 30.3032 34.0892C30.8297 34.6153 31.4609 34.8784 32.1969 34.8784Z" fill="white"/>
</g>
</svg>
