<svg width="38" height="38" viewBox="0 0 38 38" fill="none" xmlns="http://www.w3.org/2000/svg">
<mask id="mask0_1055_868" style="mask-type:alpha" maskUnits="userSpaceOnUse" x="0" y="0" width="38" height="38">
<rect width="38" height="38" fill="#D9D9D9"/>
</mask>
<g mask="url(#mask0_1055_868)">
<path d="M30.8528 31.9101L20.9387 21.9961C20.1471 22.67 19.2366 23.1917 18.2075 23.5612C17.1783 23.9306 16.1441 24.1154 15.1049 24.1154C12.5737 24.1154 10.4286 23.236 8.66948 21.4771C6.91066 19.718 6.03125 17.5729 6.03125 15.0417C6.03125 12.5105 6.91066 10.3653 8.66948 8.60621C10.4286 6.8474 12.5737 5.96799 15.1049 5.96799C17.6362 5.96799 19.7813 6.8474 21.5404 8.60621C23.2992 10.3653 24.1786 12.5105 24.1786 15.0417C24.1786 16.1418 23.9837 17.2065 23.594 18.2357C23.2042 19.2648 22.6927 20.1448 22.0593 20.8755L31.9734 30.7899L30.8528 31.9101ZM15.1049 22.532C17.2058 22.532 18.9794 21.8088 20.4257 20.3625C21.8721 18.9164 22.5953 17.1428 22.5953 15.0417C22.5953 12.9406 21.8721 11.167 20.4257 9.72088C18.9794 8.27451 17.2058 7.55132 15.1049 7.55132C13.0039 7.55132 11.2303 8.27451 9.78415 9.72088C8.33777 11.167 7.61458 12.9406 7.61458 15.0417C7.61458 17.1428 8.33777 18.9164 9.78415 20.3625C11.2303 21.8088 13.0039 22.532 15.1049 22.532Z" fill="white"/>
</g>
</svg>
