<svg width="51" height="51" viewBox="0 0 51 51" fill="none" xmlns="http://www.w3.org/2000/svg">
<mask id="mask0_1055_877" style="mask-type:alpha" maskUnits="userSpaceOnUse" x="0" y="0" width="51" height="51">
<rect width="51" height="51" fill="#D9D9D9"/>
</mask>
<g mask="url(#mask0_1055_877)">
<path d="M13.167 37.1546C14.9733 35.8551 16.8899 34.8275 18.9167 34.0717C20.9436 33.3156 23.1381 32.9375 25.5 32.9375C27.8619 32.9375 30.0564 33.3156 32.0832 34.0717C34.1101 34.8275 36.0267 35.8551 37.833 37.1546C39.2362 35.7025 40.3647 33.9876 41.2186 32.0099C42.0729 30.0319 42.5 27.8619 42.5 25.5C42.5 20.7896 40.8443 16.7786 37.5328 13.4672C34.2214 10.1557 30.2104 8.5 25.5 8.5C20.7896 8.5 16.7786 10.1557 13.4672 13.4672C10.1557 16.7786 8.5 20.7896 8.5 25.5C8.5 27.8619 8.92712 30.0319 9.78137 32.0099C10.6353 33.9876 11.7638 35.7025 13.167 37.1546ZM20.97 24.7175C19.74 23.4874 19.125 21.9775 19.125 20.1875C19.125 18.3975 19.74 16.8876 20.97 15.6575C22.2001 14.4275 23.71 13.8125 25.5 13.8125C27.29 13.8125 28.7999 14.4275 30.03 15.6575C31.26 16.8876 31.875 18.3975 31.875 20.1875C31.875 21.9775 31.26 23.4874 30.03 24.7175C28.7999 25.9475 27.29 26.5625 25.5 26.5625C23.71 26.5625 22.2001 25.9475 20.97 24.7175ZM25.5 44.625C22.8328 44.625 20.3359 44.1285 18.0094 43.1354C15.6829 42.1423 13.6586 40.785 11.9367 39.0633C10.2151 37.3414 8.85771 35.3171 7.86462 32.9906C6.87154 30.6641 6.375 28.1672 6.375 25.5C6.375 22.8328 6.87154 20.3359 7.86462 18.0094C8.85771 15.6829 10.2151 13.6586 11.9367 11.9367C13.6586 10.2151 15.6829 8.85771 18.0094 7.86462C20.3359 6.87154 22.8328 6.375 25.5 6.375C28.1672 6.375 30.6641 6.87154 32.9906 7.86462C35.3171 8.85771 37.3414 10.2151 39.0633 11.9367C40.785 13.6586 42.1423 15.6829 43.1354 18.0094C44.1285 20.3359 44.625 22.8328 44.625 25.5C44.625 28.1672 44.1285 30.6641 43.1354 32.9906C42.1423 35.3171 40.785 37.3414 39.0633 39.0633C37.3414 40.785 35.3171 42.1423 32.9906 43.1354C30.6641 44.1285 28.1672 44.625 25.5 44.625ZM31.2827 41.472C33.1785 40.7871 34.8171 39.8492 36.1983 38.6585C34.8171 37.5496 33.2192 36.6731 31.4048 36.0288C29.5904 35.3846 27.6222 35.0625 25.5 35.0625C23.3778 35.0625 21.4026 35.3779 19.5744 36.0087C17.7466 36.6394 16.1557 37.5227 14.8017 38.6585C16.1829 39.8492 17.8215 40.7871 19.7173 41.472C21.6136 42.1573 23.5411 42.5 25.5 42.5C27.4589 42.5 29.3864 42.1573 31.2827 41.472ZM28.5202 23.2077C29.3401 22.3874 29.75 21.3807 29.75 20.1875C29.75 18.9943 29.3401 17.9876 28.5202 17.1673C27.6999 16.3474 26.6932 15.9375 25.5 15.9375C24.3068 15.9375 23.3001 16.3474 22.4798 17.1673C21.6599 17.9876 21.25 18.9943 21.25 20.1875C21.25 21.3807 21.6599 22.3874 22.4798 23.2077C23.3001 24.0276 24.3068 24.4375 25.5 24.4375C26.6932 24.4375 27.6999 24.0276 28.5202 23.2077Z" fill="white"/>
</g>
</svg>
